<svg width="226" height="39" viewBox="0 0 226 39" fill="none" xmlns="http://www.w3.org/2000/svg">
<path d="M46.9152 11.0988H51.8132C54.0452 11.0988 55.6635 11.4181 56.6682 12.0568C57.6801 12.6884 58.1861 13.6967 58.1861 15.0818C58.1861 16.0219 57.9636 16.7934 57.5186 17.3963C57.0809 17.9991 56.496 18.3615 55.764 18.4835V18.5912C56.7615 18.8136 57.4792 19.2299 57.917 19.8399C58.3619 20.4499 58.5844 21.2609 58.5844 22.2728C58.5844 23.7081 58.0641 24.8277 57.0235 25.6314C55.99 26.4352 54.5834 26.8371 52.8036 26.8371H46.9152V11.0988ZM50.2523 17.3317H52.19C53.0943 17.3317 53.7473 17.1917 54.1492 16.9118C54.5583 16.632 54.7628 16.1691 54.7628 15.5232C54.7628 14.9203 54.5403 14.4897 54.0954 14.2314C53.6576 13.9658 52.9615 13.8331 52.007 13.8331H50.2523V17.3317ZM50.2523 19.9798V24.0813H52.4268C53.3454 24.0813 54.0236 23.9055 54.4614 23.5538C54.8992 23.2022 55.1181 22.6639 55.1181 21.9391C55.1181 20.6329 54.1851 19.9798 52.3192 19.9798H50.2523Z" fill="#434866"/>
<path d="M62.8301 26.8371V11.0988H66.1672V26.8371H62.8301Z" fill="#434866"/>
<path d="M77.3025 26.8371H73.9653V13.8761H69.6916V11.0988H81.5761V13.8761H77.3025V26.8371Z" fill="#434866"/>
<path d="M94.7352 26.8371L93.5941 23.0909H87.8564L86.7153 26.8371H83.1198L88.6746 11.0342H92.7545L98.3307 26.8371H94.7352ZM92.7975 20.292C91.7426 16.8975 91.1469 14.9777 91.0105 14.5328C90.8814 14.0878 90.7881 13.7362 90.7307 13.4778C90.4938 14.3964 89.8156 16.6678 88.6961 20.292H92.7975Z" fill="#434866"/>
<path d="M104.762 18.5051H105.86C106.886 18.5051 107.654 18.3041 108.163 17.9022C108.673 17.4931 108.928 16.9011 108.928 16.126C108.928 15.3437 108.712 14.766 108.282 14.3928C107.858 14.0197 107.191 13.8331 106.28 13.8331H104.762V18.5051ZM112.297 16.0076C112.297 17.7013 111.766 18.9967 110.704 19.8937C109.649 20.7908 108.145 21.2393 106.193 21.2393H104.762V26.8371H101.425V11.0988H106.452C108.361 11.0988 109.81 11.5114 110.801 12.3367C111.798 13.1549 112.297 14.3785 112.297 16.0076Z" fill="#434866"/>
<path d="M119.708 18.5051H120.806C121.832 18.5051 122.6 18.3041 123.109 17.9022C123.619 17.4931 123.874 16.9011 123.874 16.126C123.874 15.3437 123.658 14.766 123.228 14.3928C122.804 14.0197 122.137 13.8331 121.226 13.8331H119.708V18.5051ZM127.243 16.0076C127.243 17.7013 126.712 18.9967 125.65 19.8937C124.595 20.7908 123.092 21.2393 121.139 21.2393H119.708V26.8371H116.371V11.0988H121.398C123.307 11.0988 124.757 11.5114 125.747 12.3367C126.744 13.1549 127.243 14.3785 127.243 16.0076Z" fill="#434866"/>
<path d="M132.367 25.2976C132.367 24.6948 132.529 24.2391 132.852 23.9305C133.175 23.6219 133.645 23.4676 134.262 23.4676C134.858 23.4676 135.317 23.6255 135.64 23.9412C135.97 24.257 136.135 24.7091 136.135 25.2976C136.135 25.8646 135.97 26.3131 135.64 26.6432C135.31 26.9662 134.85 27.1277 134.262 27.1277C133.659 27.1277 133.193 26.9698 132.863 26.654C132.532 26.3311 132.367 25.8789 132.367 25.2976Z" fill="#434866"/>
<path d="M147.141 26.837L143.352 14.4896H143.255C143.391 17.0014 143.46 18.6772 143.46 19.5169V26.837H140.478V11.0987H145.02L148.745 23.1339H148.81L152.76 11.0987H157.303V26.837H154.192V19.3877C154.192 19.036 154.196 18.6305 154.203 18.1712C154.217 17.7119 154.268 16.4919 154.354 14.5112H154.257L150.198 26.837H147.141Z" fill="#434866"/>
<path d="M176.663 18.9463C176.663 21.5514 176.017 23.5537 174.725 24.9532C173.433 26.3526 171.582 27.0523 169.171 27.0523C166.759 27.0523 164.908 26.3526 163.616 24.9532C162.324 23.5537 161.678 21.5443 161.678 18.9248C161.678 16.3053 162.324 14.3066 163.616 12.9287C164.915 11.5436 166.774 10.8511 169.192 10.8511C171.611 10.8511 173.459 11.5472 174.736 12.9395C176.021 14.3317 176.663 16.334 176.663 18.9463ZM165.177 18.9463C165.177 20.7046 165.51 22.0287 166.178 22.9186C166.845 23.8085 167.843 24.2534 169.171 24.2534C171.833 24.2534 173.164 22.4844 173.164 18.9463C173.164 15.4011 171.84 13.6284 169.192 13.6284C167.864 13.6284 166.863 14.077 166.189 14.974C165.514 15.864 165.177 17.188 165.177 18.9463Z" fill="#434866"/>
<path d="M194.989 26.837H190.748L183.901 14.931H183.804C183.941 17.0337 184.009 18.5337 184.009 19.4307V26.837H181.027V11.0987H185.236L192.072 22.8863H192.147C192.04 20.8409 191.986 19.3949 191.986 18.548V11.0987H194.989V26.837Z" fill="#434866"/>
<path d="M209.128 26.837H200.064V11.0987H209.128V13.833H203.401V17.2885H208.73V20.0228H203.401V24.0812H209.128V26.837Z" fill="#434866"/>
<path d="M218.422 17.5792L221.706 11.0987H225.301L220.08 20.7118V26.837H216.764V20.8194L211.543 11.0987H215.16L218.422 17.5792Z" fill="#434866"/>
<rect width="4.06915" height="20.3457" rx="2.03457" transform="matrix(0.866025 0.500001 -0.499999 0.866026 11.5293 5.87329)" fill="#434866"/>
<rect width="4.06915" height="18.9894" rx="2.03457" transform="matrix(0.866028 0.499996 -0.500004 0.866023 21.2413 16.1792)" fill="#434866"/>
<rect width="4.06915" height="14.9202" rx="2.03457" transform="matrix(0.866021 0.500008 -0.499992 0.86603 20.7935 3.39087)" fill="#434866"/>
<rect width="4.06915" height="5.42553" rx="2.03457" transform="matrix(0.866028 0.499995 -0.500005 0.866023 25.3105 9.13135)" fill="#434866"/>
<rect width="4.06915" height="9.49468" rx="2.03457" transform="matrix(0.866031 0.49999 -0.50001 0.86602 11.977 18.6616)" fill="#434866"/>
<rect width="4.06915" height="18.9894" rx="2.03457" transform="matrix(0.866023 0.500004 -0.499996 0.866028 32.5401 10.1729)" fill="#434866"/>
</svg>
