<svg width="226" height="39" viewBox="0 0 226 39" fill="none" xmlns="http://www.w3.org/2000/svg">
<path d="M46.9152 11.0986H51.8132C54.0451 11.0986 55.6635 11.418 56.6682 12.0567C57.6801 12.6883 58.1861 13.6966 58.1861 15.0817C58.1861 16.0218 57.9636 16.7933 57.5186 17.3961C57.0809 17.999 56.496 18.3614 55.7639 18.4834V18.591C56.7615 18.8135 57.4792 19.2298 57.9169 19.8398C58.3619 20.4498 58.5844 21.2608 58.5844 22.2727C58.5844 23.708 58.0641 24.8275 57.0234 25.6313C55.99 26.4351 54.5834 26.837 52.8036 26.837H46.9152V11.0986ZM50.2523 17.3316H52.19C53.0942 17.3316 53.7473 17.1916 54.1492 16.9117C54.5583 16.6318 54.7628 16.1689 54.7628 15.523C54.7628 14.9202 54.5403 14.4896 54.0954 14.2312C53.6576 13.9657 52.9615 13.8329 52.007 13.8329H50.2523V17.3316ZM50.2523 19.9797V24.0812H52.4268C53.3454 24.0812 54.0236 23.9053 54.4614 23.5537C54.8992 23.202 55.118 22.6638 55.118 21.9389C55.118 20.6328 54.1851 19.9797 52.3192 19.9797H50.2523Z" fill="white"/>
<path d="M62.8301 26.837V11.0986H66.1672V26.837H62.8301Z" fill="white"/>
<path d="M77.3025 26.837H73.9653V13.876H69.6916V11.0986H81.5761V13.876H77.3025V26.837Z" fill="white"/>
<path d="M94.7352 26.837L93.5941 23.0908H87.8564L86.7153 26.837H83.1198L88.6745 11.0341H92.7545L98.3307 26.837H94.7352ZM92.7975 20.2919C91.7425 16.8974 91.1469 14.9776 91.0105 14.5327C90.8814 14.0877 90.7881 13.7361 90.7306 13.4777C90.4938 14.3963 89.8156 16.6677 88.6961 20.2919H92.7975Z" fill="white"/>
<path d="M104.762 18.5049H105.86C106.886 18.5049 107.654 18.304 108.163 17.9021C108.673 17.493 108.928 16.901 108.928 16.1259C108.928 15.3436 108.712 14.7659 108.282 14.3927C107.858 14.0195 107.191 13.8329 106.28 13.8329H104.762V18.5049ZM112.297 16.0075C112.297 17.7011 111.766 18.9965 110.704 19.8936C109.649 20.7907 108.145 21.2392 106.193 21.2392H104.762V26.837H101.425V11.0986H106.452C108.361 11.0986 109.81 11.5113 110.801 12.3366C111.798 13.1548 112.297 14.3784 112.297 16.0075Z" fill="white"/>
<path d="M119.708 18.5049H120.806C121.832 18.5049 122.6 18.304 123.109 17.9021C123.619 17.493 123.874 16.901 123.874 16.1259C123.874 15.3436 123.658 14.7659 123.228 14.3927C122.804 14.0195 122.137 13.8329 121.226 13.8329H119.708V18.5049ZM127.243 16.0075C127.243 17.7011 126.712 18.9965 125.65 19.8936C124.595 20.7907 123.091 21.2392 121.139 21.2392H119.708V26.837H116.371V11.0986H121.398C123.307 11.0986 124.756 11.5113 125.747 12.3366C126.744 13.1548 127.243 14.3784 127.243 16.0075Z" fill="white"/>
<path d="M132.367 25.2976C132.367 24.6948 132.529 24.2391 132.852 23.9305C133.175 23.6219 133.645 23.4676 134.262 23.4676C134.858 23.4676 135.317 23.6255 135.64 23.9412C135.97 24.257 136.135 24.7091 136.135 25.2976C136.135 25.8646 135.97 26.3131 135.64 26.6432C135.31 26.9662 134.85 27.1277 134.262 27.1277C133.659 27.1277 133.193 26.9698 132.862 26.654C132.532 26.3311 132.367 25.8789 132.367 25.2976Z" fill="#006BFF"/>
<path d="M147.141 26.837L143.352 14.4896H143.255C143.391 17.0014 143.46 18.6772 143.46 19.5169V26.837H140.478V11.0987H145.02L148.745 23.1339H148.81L152.76 11.0987H157.303V26.837H154.192V19.3877C154.192 19.036 154.196 18.6305 154.203 18.1712C154.217 17.7119 154.268 16.4919 154.354 14.5112H154.257L150.198 26.837H147.141Z" fill="#006BFF"/>
<path d="M176.663 18.9463C176.663 21.5514 176.017 23.5537 174.725 24.9532C173.433 26.3526 171.582 27.0523 169.17 27.0523C166.759 27.0523 164.908 26.3526 163.616 24.9532C162.324 23.5537 161.678 21.5443 161.678 18.9248C161.678 16.3053 162.324 14.3066 163.616 12.9287C164.915 11.5436 166.774 10.8511 169.192 10.8511C171.611 10.8511 173.459 11.5472 174.736 12.9395C176.021 14.3317 176.663 16.334 176.663 18.9463ZM165.177 18.9463C165.177 20.7046 165.51 22.0287 166.178 22.9186C166.845 23.8085 167.843 24.2534 169.17 24.2534C171.833 24.2534 173.164 22.4844 173.164 18.9463C173.164 15.4011 171.84 13.6284 169.192 13.6284C167.864 13.6284 166.863 14.077 166.189 14.974C165.514 15.864 165.177 17.188 165.177 18.9463Z" fill="#006BFF"/>
<path d="M194.989 26.837H190.748L183.901 14.931H183.804C183.941 17.0337 184.009 18.5337 184.009 19.4307V26.837H181.027V11.0987H185.236L192.072 22.8863H192.147C192.04 20.8409 191.986 19.3949 191.986 18.548V11.0987H194.989V26.837Z" fill="#006BFF"/>
<path d="M209.128 26.837H200.064V11.0987H209.128V13.833H203.401V17.2885H208.73V20.0228H203.401V24.0812H209.128V26.837Z" fill="#006BFF"/>
<path d="M218.422 17.5792L221.706 11.0987H225.301L220.08 20.7118V26.837H216.764V20.8194L211.543 11.0987H215.16L218.422 17.5792Z" fill="#006BFF"/>
<rect x="11.5292" y="5.87332" width="4.06915" height="20.3457" rx="2.03457" transform="rotate(30 11.5292 5.87332)" fill="#006BFF"/>
<rect x="21.2413" y="16.1792" width="4.06915" height="18.9894" rx="2.03457" transform="rotate(30 21.2413 16.1792)" fill="#006BFF"/>
<rect x="20.7935" y="3.39096" width="4.06915" height="14.9202" rx="2.03457" transform="rotate(30 20.7935 3.39096)" fill="#006BFF"/>
<rect x="25.3105" y="9.13126" width="4.06915" height="5.42553" rx="2.03457" transform="rotate(30 25.3105 9.13126)" fill="white"/>
<rect x="11.9771" y="18.6616" width="4.06915" height="9.49468" rx="2.03457" transform="rotate(30 11.9771 18.6616)" fill="white"/>
<rect x="32.5401" y="10.1729" width="4.06915" height="18.9894" rx="2.03457" transform="rotate(30 32.5401 10.1729)" fill="white"/>
</svg>
